<svg viewBox="0 0 24 24" fill="none" xmlns="http://www.w3.org/2000/svg">
    <path
       d="M 12,2 C 6.49,2 2,6.49 2,12 2,17.51 6.49,22 12,22 17.51,22 22,17.51 22,12 22,6.49 17.51,2 12,2 Z M 6.7259051,18.991422 C 4.7675709,17.249504 3.3789137,15.259487 3.2110556,12.177641 3.2488378,8.6624434 4.1352581,7.7407699 5.6914173,5.8426514 7.2475764,3.9445329 11.192026,3.0886289 11.671834,3.0886289 c 0.41,0 0.693418,0.3400008 0.694221,0.7500001 L 12.38,10.957632 c 7.05e-4,0.359999 0.114997,1.276631 -0.09605,1.568827 -0.211046,0.292196 -0.347446,0.649247 -1.287984,2.255274 -0.940538,1.606027 -2.8284829,5.49196 -4.2700629,4.209689 z"
       fill="#292d32"
   />
</svg>
