<svg viewBox="0 0 24 24" fill="none" xmlns="http://www.w3.org/2000/svg">
    <path
       d="M 12,2 C 6.49,2 2,6.49 2,12 2,17.51 6.49,22 12,22 17.51,22 22,17.51 22,12 22,6.49 17.51,2 12,2 Z M 8.7799183,5.6444162 C 8.641313,5.3262343 8.2579125,4.8204764 8.2709588,4.2803051 8.42727,3.7841103 8.8206394,3.6968396 9.8050705,3.4302378 10.789502,3.163636 11.192026,3.0886289 11.671834,3.0886289 c 0.41,0 0.693487,0.3400007 0.694221,0.7500001 L 12.38,11.62 c 6.45e-4,0.359999 0.108025,0.990767 -0.10302,1.282963 C 12.065934,13.195159 11.691881,12.39043 11.530134,12.02361 11.368386,11.65679 8.9198868,5.9657274 8.7799183,5.6444162 Z"
       fill="#292d32"
   />
</svg>
