<svg viewBox="0 0 24 24" fill="none" xmlns="http://www.w3.org/2000/svg">
    <path
       d="M 12,2 C 6.49,2 2,6.49 2,12 2,17.51 6.49,22 12,22 17.51,22 22,17.51 22,12 22,6.49 17.51,2 12,2 Z M 4.8960004,8.9344929 C 4.7992633,8.8476485 3.8583952,8.4948752 4.2828068,7.6479229 5.2200149,6.2662468 6.8303851,4.8522885 7.6157703,4.3784697 9.1440403,3.4564723 11.192026,3.0886289 11.671834,3.0886289 c 0.41,0 0.693487,0.3400007 0.694221,0.7500001 L 12.38,11.62 c 6.45e-4,0.359999 0.108025,0.990767 -0.10302,1.282963 -0.211046,0.292196 -0.77032,0.01533 -1.07838,-0.144622 C 7.927209,11.059813 6.054959,9.8903087 4.8960004,8.9344929 Z"
       fill="#292d32"
   />
</svg>