<svg viewBox="0 0 24 24" fill="none" xmlns="http://www.w3.org/2000/svg">
    <path
       d="M 12,2 C 6.49,2 2,6.49 2,12 2,17.51 6.49,22 12,22 17.51,22 22,17.51 22,12 22,6.49 17.51,2 12,2 Z M 3.4070933,12.967361 C 2.5634797,12.345021 3.6020271,8.6427799 4.480013,7.2830913 5.4172211,5.9014152 6.8303851,4.8522885 7.6157703,4.3784697 9.1440403,3.4564723 11.192026,3.0886289 11.671834,3.0886289 c 0.41,0 0.693487,0.3400007 0.694221,0.7500001 L 12.38,11.62 c 6.45e-4,0.359999 0.108025,0.990767 -0.10302,1.282963 -0.211046,0.292196 -0.69606,0.203043 -1.329818,0.205419 -0.633757,0.0024 -7.0000935,0.257322 -7.5400687,-0.141021 z"
       fill="#292d32"
   />
</svg>