<svg viewBox="0 0 24 24" fill="none" xmlns="http://www.w3.org/2000/svg">
    <path
       d="M 12,2 C 6.49,2 2,6.49 2,12 2,17.51 6.49,22 12,22 17.51,22 22,17.51 22,12 22,6.49 17.51,2 12,2 Z M 6.4020158,7.0659182 C 6.1635185,6.813787 5.8176097,6.4798823 5.830656,5.939711 5.9869672,5.4435162 6.8303851,4.8522885 7.6157703,4.3784697 9.1440403,3.4564723 11.192026,3.0886289 11.671834,3.0886289 c 0.41,0 0.693487,0.3400007 0.694221,0.7500001 L 12.38,11.62 c 6.45e-4,0.359999 0.108025,0.990767 -0.10302,1.282963 -0.211046,0.292196 -0.616823,-0.19614 -0.931962,-0.493237 C 11.02988,12.112629 6.6741075,7.3535642 6.4020158,7.0659182 Z"
       fill="#292d32"
   />
</svg>